HIERARCHY
ROOT Hips
{
	OFFSET 15.585500 22.159004 44.358299
	CHANNELS 6 Xposition Yposition Zposition Zrotation Xrotation Yrotation
	JOINT Chest
	{
		OFFSET -0.128500 0.160400 6.566002
		CHANNELS 6 Xposition Yposition Zposition Zrotation Xrotation Yrotation
		JOINT Chest2
		{
			OFFSET 0.000000 0.000000 3.554802
			CHANNELS 6 Xposition Yposition Zposition Zrotation Xrotation Yrotation
			JOINT Neck
			{
				OFFSET 0.000000 0.000000 8.267998
				CHANNELS 6 Xposition Yposition Zposition Zrotation Xrotation Yrotation
				JOINT Head
				{
					OFFSET 0.000000 0.000002 2.173897
					CHANNELS 6 Xposition Yposition Zposition Zrotation Xrotation Yrotation
					End Site
					{
						OFFSET 0.000000 0.000000 7.718697
					}
				}
			}
			JOINT LeftCollar
			{
				OFFSET 2.057500 0.117599 5.946301
				CHANNELS 6 Xposition Yposition Zposition Zrotation Xrotation Yrotation
				JOINT LeftShoulder
				{
					OFFSET 4.957699 0.000000 0.000000
					CHANNELS 6 Xposition Yposition Zposition Zrotation Xrotation Yrotation
					JOINT LeftElbow
					{
						OFFSET 0.000000 0.000000 -8.465500
						CHANNELS 6 Xposition Yposition Zposition Zrotation Xrotation Yrotation
						JOINT LeftWrist
						{
							OFFSET 0.000000 -0.000002 -14.594898
							CHANNELS 6 Xposition Yposition Zposition Zrotation Xrotation Yrotation
							End Site
							{
								OFFSET 0.000000 0.000000 -2.173901
							}
						}
					}
				}
			}
			JOINT RightCollar
			{
				OFFSET -3.048500 -0.728800 6.604099
				CHANNELS 6 Xposition Yposition Zposition Zrotation Xrotation Yrotation
				JOINT RightShoulder
				{
					OFFSET -3.710299 0.000000 0.000000
					CHANNELS 6 Xposition Yposition Zposition Zrotation Xrotation Yrotation
					JOINT RightElbow
					{
						OFFSET 0.000000 0.000000 -10.450901
						CHANNELS 6 Xposition Yposition Zposition Zrotation Xrotation Yrotation
						JOINT RightWrist
						{
							OFFSET 0.000000 0.000000 -12.539200
							CHANNELS 6 Xposition Yposition Zposition Zrotation Xrotation Yrotation
							End Site
							{
								OFFSET 0.000000 -0.000002 -2.173901
							}
						}
					}
				}
			}
		}
	}
	JOINT LeftHip
	{
		OFFSET 2.442599 -0.601400 -2.767502
		CHANNELS 6 Xposition Yposition Zposition Zrotation Xrotation Yrotation
		JOINT LeftKnee
		{
			OFFSET 0.000000 -0.000002 -17.033703
			CHANNELS 6 Xposition Yposition Zposition Zrotation Xrotation Yrotation
			JOINT LeftAnkle
			{
				OFFSET 0.000000 -0.000002 -19.318800
				CHANNELS 6 Xposition Yposition Zposition Zrotation Xrotation Yrotation
				End Site
				{
					OFFSET 0.000000 -8.281900 0.000000
				}
			}
		}
	}
	JOINT RightHip
	{
		OFFSET -3.126200 -0.601400 -2.283501
		CHANNELS 6 Xposition Yposition Zposition Zrotation Xrotation Yrotation
		JOINT RightKnee
		{
			OFFSET 0.000000 -0.000002 -16.919401
			CHANNELS 6 Xposition Yposition Zposition Zrotation Xrotation Yrotation
			JOINT RightAnkle
			{
				OFFSET 0.000000 -0.000002 -18.035900
				CHANNELS 6 Xposition Yposition Zposition Zrotation Xrotation Yrotation
				End Site
				{
					OFFSET 0.000000 -9.230099 0.000000
				}
			}
		}
	}
}
MOTION
Frames: 10
Frame Time: 0.041667
25.130001 40.245506 8.556801 4.810672 -5.126921 7.353553 -0.128499 0.160398 6.566004 -4.039818 18.782083 0.357544 0.000001 0.000003 3.554809 12.649194 -11.133063 0.994982 -0.000006 0.000005 8.268000 -47.222487 -0.248628 7.549570 0.000002 0.000001 2.173898 -4.225143 2.674432 -8.748807 2.057498 0.117605 5.946305 -21.992996 6.720255 -5.086031 4.957691 0.000009 -0.000005 -5.505550 -24.875506 -127.839394 -0.000004 0.000004 -8.465513 -93.359779 -147.832369 -137.341949 0.000000 0.000001 -14.594897 8.090288 -32.222654 -40.466764 -3.048508 -0.728797 6.604102 32.177749 0.234954 -30.588258 -3.710298 0.000000 -0.000004 -5.245870 -12.211825 78.743017 0.000005 0.000003 -10.450893 -85.913855 -33.622453 -13.338063 0.000005 0.000003 -12.539192 658.715902 -13.969322 -18.396003 2.442595 -0.601402 -2.767505 129.079456 -8.777845 92.645786 -0.000003 0.000004 -17.033705 -165.425256 49.178072 160.796737 -0.000000 0.000001 -19.318802 -131.404930 121.473822 390.811157 -3.126194 -0.601402 -2.283500 -129.749101 -30.254654 -85.414903 -0.000006 -0.000002 -16.919399 323.776812 -61.022570 -207.129038 0.000000 0.000002 -18.035894 189.501700 53.901555 -191.766823
25.104797 40.256702 8.547989 4.864117 -5.112752 7.247839 -0.128503 0.160406 6.566003 -4.094846 18.914756 0.380086 0.000000 -0.000000 3.554807 12.718642 -11.106435 1.015210 -0.000003 -0.000001 8.267999 -47.236857 -0.086738 7.673078 0.000003 0.000000 2.173899 -4.217439 2.732045 -8.720745 2.057498 0.117600 5.946309 -22.053346 6.784500 -4.961392 4.957702 0.000002 -0.000002 -5.650892 -25.051508 -127.435743 0.000002 0.000004 -8.465504 -93.305951 -147.309873 -136.360943 -0.000009 0.000007 -14.594900 6.560148 -32.685607 -41.440189 -3.048506 -0.728803 6.604099 32.239582 0.289848 -30.627330 -3.710295 0.000002 -0.000004 -5.169729 -12.165455 78.613920 0.000005 0.000003 -10.450892 -85.607392 -33.240888 -13.078057 0.000004 0.000001 -12.539194 658.242816 -13.762813 -19.635961 2.442593 -0.601401 -2.767498 129.053146 -8.706988 92.620773 -0.000001 -0.000006 -17.033705 -165.346995 49.135073 160.746931 -0.000001 0.000000 -19.318808 -131.383197 121.454410 390.838096 -3.126199 -0.601399 -2.283501 -129.794167 -30.217300 -85.404125 -0.000002 0.000003 -16.919395 324.488272 -61.164610 -206.543281 0.000002 0.000005 -18.035894 189.765140 53.833246 -191.560032
25.079098 40.267799 8.539200 4.916094 -5.102388 7.138530 -0.128494 0.160404 6.566003 -4.149681 19.053231 0.408175 -0.000000 0.000007 3.554803 12.790766 -11.080073 1.036170 -0.000001 -0.000010 8.267993 -47.255367 0.079278 7.797365 0.000003 -0.000002 2.173900 -4.213374 2.790788 -8.694582 2.057507 0.117590 5.946303 -22.112688 6.845482 -4.834728 4.957693 0.000004 0.000000 -5.802583 -25.202375 -127.009116 0.000004 -0.000003 -8.465506 -93.240661 -146.769099 -135.349132 -0.000001 -0.000001 -14.594899 5.003302 -33.142865 -42.408129 -3.048501 -0.728812 6.604093 32.290631 0.338930 -30.663284 -3.710293 0.000001 0.000001 -5.078296 -12.133043 78.498545 0.000005 0.000002 -10.450890 -85.270527 -32.829878 -12.810184 0.000005 0.000003 -12.539196 657.745687 -13.605215 -20.744973 2.442598 -0.601397 -2.767500 129.028776 -8.637579 92.592585 -0.000000 0.000002 -17.033705 -165.269596 49.092200 160.699735 -0.000004 0.000000 -19.318804 -131.362884 121.434275 390.865963 -3.126190 -0.601398 -2.283500 -129.834451 -30.191424 -85.392999 -0.000001 -0.000001 -16.919399 325.139326 -61.295538 -205.996620 0.000000 0.000001 -18.035896 189.987435 53.771211 -191.343665
25.053101 40.278809 8.530197 4.964934 -5.097354 7.025392 -0.128495 0.160401 6.566004 -4.202582 19.198130 0.440723 -0.000001 0.000000 3.554802 12.867978 -11.052942 1.058602 -0.000003 0.000002 8.267997 -47.279000 0.249428 7.923822 0.000002 -0.000004 2.173895 -4.212260 2.850190 -8.674664 2.057503 0.117609 5.946302 -22.171188 6.902217 -4.703645 4.957697 0.000005 -0.000002 -5.957904 -25.316199 -126.554034 0.000000 0.000004 -8.465507 -93.155789 -146.205691 -134.306504 -0.000002 0.000002 -14.594896 3.422893 -33.589829 -43.372664 -3.048502 -0.728795 6.604098 32.332647 0.382535 -30.694983 -3.710298 0.000000 0.000003 -4.975418 -12.118461 78.397260 0.000007 0.000002 -10.450892 -85.954816 -32.182373 -13.159807 0.000001 0.000003 -12.539194 658.153641 -13.498756 -21.813638 2.442596 -0.601399 -2.767505 129.008067 -8.570825 92.560306 0.000000 -0.000007 -17.033703 -165.193985 49.049593 160.656117 -0.000000 0.000001 -19.318804 -131.344278 121.413361 390.894841 -3.126195 -0.601401 -2.283501 -129.865652 -30.182036 -85.378416 -0.000003 -0.000000 -16.919395 325.725438 -61.416918 -205.489328 0.000000 -0.000003 -18.035896 190.170184 53.714821 -191.116520
25.026798 40.289505 8.521095 5.009436 -5.098458 6.908776 -0.128500 0.160407 6.566006 -4.252034 19.349178 0.475865 -0.000001 0.000007 3.554806 12.952586 -11.024123 1.083140 0.000005 0.000003 8.267994 -47.308656 0.423596 8.053562 -0.000001 -0.000003 2.173899 -4.215822 2.910709 -8.660789 2.057507 0.117602 5.946302 -22.228123 6.953201 -4.564308 4.957702 0.000010 -0.000004 -6.114602 -25.377645 -126.064979 -0.000003 0.000004 -8.465505 -93.040106 -145.614743 -133.233427 0.000003 0.000007 -14.594897 1.818974 -34.021445 -44.339792 -3.048497 -0.728796 6.604095 32.368010 0.421044 -30.721494 -3.710295 0.000002 0.000003 -4.864889 -12.123302 78.310940 0.000011 -0.000003 -10.450891 -85.040090 -31.810547 -12.595064 -0.000001 0.000000 -12.539197 657.180639 -13.329520 -22.898085 2.442593 -0.601394 -2.767497 128.992371 -8.507352 92.523696 0.000000 0.000003 -17.033705 -165.121353 49.007618 160.616802 -0.000002 0.000003 -19.318802 -131.328637 121.391422 390.925249 -3.126199 -0.601402 -2.283498 -129.884380 -30.193394 -85.358185 -0.000003 -0.000005 -16.919394 326.241172 -61.530012 -205.022895 -0.000002 -0.000002 -18.035898 190.314164 53.663454 -190.877532
25.000301 40.300003 8.511803 5.048834 -5.105705 6.789436 -0.128501 0.160398 6.566005 -4.296678 19.505130 0.511043 -0.000001 0.000003 3.554802 13.046050 -10.992833 1.110175 -0.000005 -0.000000 8.267996 -47.344395 0.601903 8.187703 0.000000 -0.000006 2.173899 -4.224280 2.972570 -8.654014 2.057499 0.117599 5.946302 -22.281735 6.995953 -4.411671 4.957687 0.000002 -0.000001 -6.271423 -25.367929 -125.536336 0.000001 0.000010 -8.465499 -92.881810 -144.990942 -132.131526 -0.000008 0.000002 -14.594897 0.189473 -34.433736 -45.316157 -3.048504 -0.728800 6.604095 32.399480 0.455671 -30.742074 -3.710291 -0.000001 0.000000 -4.749662 -12.147263 78.240650 0.000005 0.000003 -10.450892 -84.709891 -31.289209 -12.362140 0.000005 0.000003 -12.539198 656.728098 -13.169815 -23.957081 2.442595 -0.601404 -2.767499 128.982494 -8.447798 92.483487 0.000000 0.000002 -17.033707 -165.053393 48.966586 160.582843 -0.000002 0.000004 -19.318802 -131.316438 121.368445 390.957132 -3.126194 -0.601400 -2.283502 -129.888382 -30.227180 -85.330496 -0.000003 0.000001 -16.919399 326.683686 -61.635825 -204.597948 -0.000000 -0.000001 -18.035898 190.420374 53.616988 -190.626386
24.973801 40.310005 8.502396 5.082950 -5.118703 6.668418 -0.128501 0.160404 6.566009 -4.335967 19.664569 0.543671 0.000001 0.000003 3.554802 13.149002 -10.958501 1.139879 0.000009 0.000003 8.267994 -47.385769 0.785013 8.326688 -0.000000 0.000009 2.173900 -4.238113 3.035815 -8.653899 2.057506 0.117602 5.946303 -22.329502 7.028327 -4.240408 4.957697 0.000004 0.000000 -6.427980 -25.266012 -124.963720 0.000000 0.000004 -8.465504 -92.668243 -144.329178 -131.003670 -0.000004 0.000005 -14.594899 -1.469589 -34.822586 -46.309922 -3.048497 -0.728797 6.604095 32.430445 0.488175 -30.756639 -3.710290 0.000004 -0.000000 -4.632239 -12.188151 78.187621 0.000006 -0.000001 -10.450894 -84.343964 -30.739314 -12.112383 0.000003 0.000002 -12.539194 656.252389 -13.007414 -24.994811 2.442594 -0.601398 -2.767506 128.978751 -8.391552 92.440566 -0.000000 0.000003 -17.033703 -164.991853 48.926499 160.554839 -0.000002 0.000003 -19.318804 -131.308228 121.344198 390.990737 -3.126195 -0.601400 -2.283501 -129.877181 -30.283426 -85.294603 -0.000005 -0.000003 -16.919399 327.052380 -61.735211 -204.214556 -0.000000 -0.000006 -18.035898 190.490465 53.574747 -190.363629
24.947395 40.319603 8.492901 5.111868 -5.136400 6.546880 -0.128499 0.160405 6.566002 -4.369694 19.825013 0.571090 0.000001 -0.000005 3.554806 13.261360 -10.920780 1.172330 -0.000002 -0.000004 8.267998 -47.432088 0.973484 8.470508 0.000002 0.000004 2.173894 -4.262537 2.985218 -8.667216 2.057502 0.117597 5.946308 -22.367804 7.047198 -4.045950 4.957694 0.000003 0.000006 -6.585503 -25.050451 -124.343785 -0.000003 0.000010 -8.465507 -92.388383 -143.624958 -129.854272 -0.000006 0.000005 -14.594893 -3.163654 -35.184357 -47.329434 -3.048504 -0.728804 6.604098 32.464050 0.520163 -30.764118 -3.710295 0.000003 -0.000001 -4.513996 -12.242180 78.151441 0.000005 0.000001 -10.450886 -83.944910 -30.161678 -11.843893 0.000005 0.000008 -12.539193 655.752365 -12.842698 -26.006417 2.442596 -0.601399 -2.767504 128.981005 -8.338392 92.396764 -0.000002 -0.000009 -17.033705 -164.937990 48.887550 160.532928 0.000001 0.000002 -19.318804 -131.304895 121.318571 391.026636 -3.126197 -0.601399 -2.283498 -129.851554 -30.360273 -85.251102 -0.000004 -0.000004 -16.919394 327.346761 -61.828047 -203.873975 0.000001 -0.000002 -18.035896 190.524903 53.536542 -190.089847
24.921001 40.328705 8.483303 5.136771 -5.157042 6.425880 -0.128501 0.160405 6.566002 -4.398558 19.984188 0.591728 -0.000000 0.000001 3.554808 13.381855 -10.879913 1.207102 -0.000001 0.000008 8.268000 -47.481805 1.168610 8.618317 0.000004 0.000003 2.173900 -4.283929 3.059592 -8.681582 2.057502 0.117603 5.946306 -22.392902 7.049826 -3.824793 4.957696 0.000003 0.000004 -6.747236 -24.702288 -123.676312 0.000000 -0.000001 -8.465503 -92.035679 -142.874744 -128.689097 -0.000006 0.000000 -14.594896 -4.912238 -35.522140 -48.394363 -3.048505 -0.728793 6.604100 32.502948 0.553591 -30.763773 -3.710293 0.000003 -0.000000 -4.395576 -12.304164 78.131422 0.000000 -0.000000 -10.450893 -83.517053 -29.557036 -11.556065 0.000005 0.000005 -12.539194 655.227533 -12.675593 -26.986132 2.442596 -0.601395 -2.767509 128.988683 -8.286811 92.353815 -0.000000 0.000005 -17.033705 -164.893116 48.849513 160.517095 -0.000000 0.000000 -19.318804 -131.306357 121.291251 391.064721 -3.126194 -0.601400 -2.283505 -129.813619 -30.453870 -85.201194 -0.000004 0.000000 -16.919394 327.570026 -61.914620 -203.576083 -0.000001 -0.000004 -18.035896 190.525477 53.502221 -189.807023
24.894798 40.337303 8.473602 5.158477 -5.178916 6.306481 -0.128500 0.160408 6.566011 -4.423836 20.139373 0.604935 -0.000000 0.000005 3.554806 13.508599 -10.836473 1.243645 -0.000003 -0.000001 8.268002 -47.533168 1.371770 8.768260 0.000002 0.000007 2.173898 -4.309821 3.135995 -8.698129 2.057502 0.117596 5.946312 -22.401118 7.034151 -3.575001 4.957696 0.000005 0.000002 -6.833084 -24.249922 -123.063726 -0.000003 0.000005 -8.465498 -91.530621 -142.209607 -127.397986 -0.000005 0.000003 -14.594893 -6.690445 -35.819267 -49.485779 -3.048506 -0.728806 6.604105 32.549147 0.590002 -30.755297 -3.710289 0.000001 -0.000004 -4.276290 -12.368485 78.126716 0.000006 0.000003 -10.450895 -83.063870 -28.926585 -11.247955 0.000007 0.000004 -12.539190 654.677621 -12.505684 -27.927595 2.442594 -0.601396 -2.767498 129.000854 -8.235335 92.313763 -0.000001 -0.000008 -17.033707 -164.858049 48.812056 160.506918 -0.000003 -0.000001 -19.318806 -131.312477 121.262263 391.105347 -3.126196 -0.601391 -2.283497 -129.766559 -30.559448 -85.147112 -0.000002 -0.000002 -16.919399 327.726984 -61.994649 -203.320388 0.000000 0.000004 -18.035894 190.494003 53.471369 -189.517300
